HIERARCHY
ROOT Junyuan_V1:Solving:Hips
{
	OFFSET 0.000000 0.000000 0.000000
	CHANNELS 6 Xposition Yposition Zposition Xrotation Yrotation Zrotation
	JOINT Junyuan_V1:Solving:Spine
	{
		OFFSET 0.000000 -11.180205 2.228564
		CHANNELS 6 Xposition Yposition Zposition Xrotation Yrotation Zrotation
		JOINT Junyuan_V1:Solving:Spine1
		{
			OFFSET 0.000000 -8.682996 1.531049
			CHANNELS 6 Xposition Yposition Zposition Xrotation Yrotation Zrotation
			JOINT Junyuan_V1:Solving:Spine2
			{
				OFFSET 0.000000 -8.783394 0.768450
				CHANNELS 6 Xposition Yposition Zposition Xrotation Yrotation Zrotation
				JOINT Junyuan_V1:Solving:Spine3
				{
					OFFSET 0.000000 -8.816944 0.000000
					CHANNELS 6 Xposition Yposition Zposition Xrotation Yrotation Zrotation
					JOINT Junyuan_V1:Solving:Neck
					{
						OFFSET 0.000000 -11.336071 -1.133605
						CHANNELS 6 Xposition Yposition Zposition Xrotation Yrotation Zrotation
						JOINT Junyuan_V1:Solving:Neck1
						{
							OFFSET 0.000000 -7.643246 -0.668695
							CHANNELS 6 Xposition Yposition Zposition Xrotation Yrotation Zrotation
							JOINT Junyuan_V1:Solving:Head
							{
								OFFSET 0.000000 -7.555870 -1.332303
								CHANNELS 6 Xposition Yposition Zposition Xrotation Yrotation Zrotation
								JOINT Junyuan_V1:Solving:HeadEnd
								{
									OFFSET 0.000000 -9.728081 0.000002
									CHANNELS 6 Xposition Yposition Zposition Xrotation Yrotation Zrotation
									End Site
									{
										OFFSET 0.000000 -9.728081 0.000002
									}
								}
							}
						}
					}
					JOINT Junyuan_V1:Solving:RightShoulder
					{
						OFFSET 0.000000 -8.097195 -5.270916
						CHANNELS 6 Xposition Yposition Zposition Xrotation Yrotation Zrotation
						JOINT Junyuan_V1:Solving:RightArm
						{
							OFFSET -20.762394 -0.000008 0.000000
							CHANNELS 6 Xposition Yposition Zposition Xrotation Yrotation Zrotation
							JOINT Junyuan_V1:Solving:RightForeArm
							{
								OFFSET -29.048946 -0.000008 0.000000
								CHANNELS 6 Xposition Yposition Zposition Xrotation Yrotation Zrotation
								JOINT Junyuan_V1:Solving:RightHand
								{
									OFFSET -22.031235 -0.000008 0.000000
									CHANNELS 6 Xposition Yposition Zposition Xrotation Yrotation Zrotation
									JOINT Junyuan_V1:Solving:RightHandThumb1
									{
										OFFSET -3.579254 2.890213 -2.661497
										CHANNELS 6 Xposition Yposition Zposition Xrotation Yrotation Zrotation
										End Site
										{
											OFFSET -5.229485 0.000000 -5.277840
										}
									}
									JOINT Junyuan_V1:Solving:RightHandMiddle1
									{
										OFFSET -9.544678 -0.000004 0.061184
										CHANNELS 6 Xposition Yposition Zposition Xrotation Yrotation Zrotation
										End Site
										{
											OFFSET -7.429878 -0.000004 0.000000
										}
									}
								}
							}
						}
					}
					JOINT Junyuan_V1:Solving:LeftShoulder
					{
						OFFSET 0.000000 -8.097195 -5.270916
						CHANNELS 6 Xposition Yposition Zposition Xrotation Yrotation Zrotation
						JOINT Junyuan_V1:Solving:LeftArm
						{
							OFFSET 20.762394 -0.000008 0.000000
							CHANNELS 6 Xposition Yposition Zposition Xrotation Yrotation Zrotation
							JOINT Junyuan_V1:Solving:LeftForeArm
							{
								OFFSET 29.048946 -0.000008 0.000000
								CHANNELS 6 Xposition Yposition Zposition Xrotation Yrotation Zrotation
								JOINT Junyuan_V1:Solving:LeftHand
								{
									OFFSET 22.031235 -0.000008 0.000000
									CHANNELS 6 Xposition Yposition Zposition Xrotation Yrotation Zrotation
									JOINT Junyuan_V1:Solving:LeftHandThumb1
									{
										OFFSET 3.579254 2.890213 -2.661497
										CHANNELS 6 Xposition Yposition Zposition Xrotation Yrotation Zrotation
										End Site
										{
											OFFSET 5.229485 0.000000 -5.277840
										}
									}
									JOINT Junyuan_V1:Solving:LeftHandMiddle1
									{
										OFFSET 9.544678 -0.000004 0.061184
										CHANNELS 6 Xposition Yposition Zposition Xrotation Yrotation Zrotation
										End Site
										{
											OFFSET 7.429878 -0.000004 0.000000
										}
									}
								}
							}
						}
					}
				}
			}
		}
	}
	JOINT Junyuan_V1:Solving:RightUpLeg
	{
		OFFSET -10.825166 0.000000 0.000000
		CHANNELS 6 Xposition Yposition Zposition Xrotation Yrotation Zrotation
		JOINT Junyuan_V1:Solving:RightLeg
		{
			OFFSET 0.000000 43.678444 -0.000006
			CHANNELS 6 Xposition Yposition Zposition Xrotation Yrotation Zrotation
			JOINT Junyuan_V1:Solving:RightFoot
			{
				OFFSET 0.000000 36.488441 -0.000006
				CHANNELS 6 Xposition Yposition Zposition Xrotation Yrotation Zrotation
				JOINT Junyuan_V1:Solving:RightForeFoot
				{
					OFFSET 0.000000 3.967834 -0.000000
					CHANNELS 6 Xposition Yposition Zposition Xrotation Yrotation Zrotation
					JOINT Junyuan_V1:Solving:RightToeBase
					{
						OFFSET 0.000000 0.000000 -15.539299
						CHANNELS 6 Xposition Yposition Zposition Xrotation Yrotation Zrotation
						JOINT Junyuan_V1:Solving:RightToeBaseEnd
						{
							OFFSET 0.000000 0.000000 -3.486985
							CHANNELS 6 Xposition Yposition Zposition Xrotation Yrotation Zrotation
							End Site
							{
								OFFSET 0.000000 -3.486992 0.000000
							}
						}
					}
				}
			}
		}
	}
	JOINT Junyuan_V1:Solving:LeftUpLeg
	{
		OFFSET 10.825166 0.000000 0.000000
		CHANNELS 6 Xposition Yposition Zposition Xrotation Yrotation Zrotation
		JOINT Junyuan_V1:Solving:LeftLeg
		{
			OFFSET 0.000000 43.678444 -0.000006
			CHANNELS 6 Xposition Yposition Zposition Xrotation Yrotation Zrotation
			JOINT Junyuan_V1:Solving:LeftFoot
			{
				OFFSET 0.000000 36.488441 -0.000006
				CHANNELS 6 Xposition Yposition Zposition Xrotation Yrotation Zrotation
				JOINT Junyuan_V1:Solving:LeftForeFoot
				{
					OFFSET 0.000000 3.967834 -0.000000
					CHANNELS 6 Xposition Yposition Zposition Xrotation Yrotation Zrotation
					JOINT Junyuan_V1:Solving:LeftToeBase
					{
						OFFSET 0.000000 0.000000 -15.539299
						CHANNELS 6 Xposition Yposition Zposition Xrotation Yrotation Zrotation
						JOINT Junyuan_V1:Solving:LeftToeBaseEnd
						{
							OFFSET 0.000000 0.000000 -3.974441
							CHANNELS 6 Xposition Yposition Zposition Xrotation Yrotation Zrotation
							End Site
							{
								OFFSET 0.000000 -3.974442 0.000000
							}
						}
					}
				}
			}
		}
	}
}
MOTION
Frames: 4
Frame Time: 0.041667
15.731873 -27.889301 -81.933624 50.163419 -177.061740 -3.885218 0.000002 -11.180182 2.228561 13.768228 0.283198 0.373818 0.000002 -8.682989 1.531034 18.197516 0.236031 0.289929 -0.000002 -8.783394 0.768474 19.951464 -4.776613 -6.127900 0.000000 -8.816938 0.000010 -8.825059 -0.671290 -0.826663 0.000002 -11.336081 -1.133597 -44.696758 -10.519169 5.731108 0.000000 -7.643226 -0.668692 19.879648 2.444310 -4.927241 0.000001 -7.555886 -1.332299 -0.178170 -0.108469 0.558058 -0.000004 -9.728081 0.000000 -0.000001 0.000000 0.000000 0.000006 -8.097206 -5.270899 0.000007 10.774749 24.260352 -20.762388 -0.000015 -0.000015 -76.866580 -13.674834 -91.612303 -29.048950 -0.000028 0.000002 -32.395652 -25.312307 -15.178246 -22.031227 -0.000016 -0.000006 5.383104 -7.128579 37.210761 -3.579260 2.890202 -2.661491 0.000001 -0.000000 0.000003 -9.544697 -0.000002 0.061182 -0.000004 -0.000001 -0.000005 0.000005 -8.097198 -5.270899 0.000002 -12.286709 -17.504491 20.762390 -0.000000 0.000004 -83.406814 20.671378 99.251104 29.048975 -0.000028 -0.000002 -60.758255 13.233182 22.239369 22.031221 -0.000009 0.000003 5.263364 11.699832 -24.431749 3.579273 2.890210 -2.661466 0.000005 -0.000007 -0.000006 9.544685 -0.000003 0.061194 -0.000001 -0.000007 -0.000000 -10.825165 0.000015 0.000001 -75.639284 15.759009 8.129248 -0.000007 43.678440 0.000001 44.602727 0.000001 0.000004 -0.000004 36.488426 -0.000007 -4.098014 9.371872 0.841230 -0.000005 3.967834 0.000004 0.000001 -0.000002 -0.000000 0.000003 -0.000009 -15.539292 9.177572 -0.000004 0.000002 0.000001 -0.000000 -3.486980 0.000001 -0.000002 0.000002 10.825168 0.000020 -0.000003 -74.032618 -27.912379 -11.796827 0.000002 43.678452 -0.000003 39.884336 -0.000001 0.000004 0.000003 36.488434 -0.000003 -3.822095 15.179083 4.271939 0.000002 3.967827 -0.000002 -0.000002 -0.000002 -0.000000 -0.000001 0.000009 -15.539306 -1.378364 0.000002 -0.000002 -0.000001 -0.000007 -3.974442 0.000000 -0.000000 0.000003 
15.899050 -27.967848 -81.679688 50.488649 -176.352315 -3.613897 -0.000002 -11.180209 2.228574 14.187943 0.467821 0.492564 0.000000 -8.682992 1.531050 18.136739 0.202321 0.574189 0.000001 -8.783382 0.768442 19.773439 -5.145747 -6.003167 0.000003 -8.816940 0.000016 -8.969318 -0.790914 -1.257387 -0.000005 -11.336070 -1.133623 -44.911946 -11.803591 7.199673 0.000000 -7.643237 -0.668691 21.448956 3.023346 -6.950845 0.000004 -7.555861 -1.332312 -0.320503 -0.180125 0.775340 0.000003 -9.728111 0.000010 -0.000002 0.000002 0.000001 -0.000006 -8.097202 -5.270935 0.000001 10.658076 24.423105 -20.762386 -0.000001 0.000012 -76.532181 -13.802677 -91.736694 -29.048967 -0.000032 -0.000007 -32.200951 -25.631986 -15.238996 -22.031227 -0.000021 -0.000008 5.414683 -7.082387 37.552165 -3.579247 2.890210 -2.661502 0.000004 0.000005 -0.000000 -9.544669 -0.000004 0.061186 0.000003 0.000002 0.000001 -0.000007 -8.097202 -5.270934 -0.000003 -12.087384 -16.636975 20.762400 -0.000012 -0.000027 -83.359105 21.731779 98.853260 29.048954 -0.000005 -0.000005 -60.683622 13.049557 21.904553 22.031223 -0.000002 -0.000019 5.423282 11.904387 -24.713819 3.579274 2.890206 -2.661507 -0.000001 0.000002 -0.000004 9.544694 -0.000006 0.061185 -0.000001 0.000003 0.000001 -10.825162 -0.000020 0.000014 -75.478419 16.925472 7.891797 0.000006 43.678436 -0.000015 45.215958 -0.000002 0.000001 0.000002 36.488445 -0.000007 -4.560375 8.305357 0.547086 -0.000003 3.967827 -0.000005 0.000001 0.000002 -0.000001 0.000000 0.000006 -15.539306 9.141410 0.000003 -0.000001 -0.000010 -0.000007 -3.486987 0.000001 0.000006 -0.000002 10.825167 -0.000010 0.000006 -73.117571 -25.695735 -11.413874 0.000002 43.678452 0.000008 39.895750 -0.000000 0.000001 -0.000003 36.488422 -0.000001 -5.186865 9.348719 4.190160 -0.000002 3.967827 -0.000004 -0.000000 0.000001 -0.000001 -0.000001 -0.000009 -15.539313 -0.659544 -0.000000 0.000000 -0.000001 -0.000008 -3.974440 -0.000000 -0.000000 0.000002 
16.087660 -27.975777 -81.451904 50.660186 -175.736601 -3.352961 0.000001 -11.180210 2.228574 14.211942 0.699854 0.587797 -0.000002 -8.682978 1.531053 17.929967 0.163936 0.667983 0.000003 -8.783394 0.768452 20.301784 -5.264968 -5.522750 0.000002 -8.816951 -0.000005 -9.013717 -0.796033 -1.226005 -0.000000 -11.336059 -1.133614 -44.918152 -11.512846 6.793928 0.000000 -7.643270 -0.668691 21.514483 3.037994 -6.784633 0.000001 -7.555871 -1.332314 -0.129029 -0.161515 0.738055 0.000002 -9.728096 -0.000005 -0.000003 -0.000001 0.000000 0.000002 -8.097202 -5.270928 0.000008 10.490076 24.183816 -20.762396 -0.000026 0.000000 -76.635481 -13.595936 -91.960110 -29.048952 -0.000033 -0.000001 -31.967211 -25.743495 -15.166230 -22.031244 -0.000025 0.000010 5.413044 -7.045573 37.687413 -3.579269 2.890212 -2.661490 0.000011 0.000003 0.000001 -9.544712 -0.000007 0.061185 0.000005 0.000006 -0.000004 -0.000007 -8.097195 -5.270927 -0.000001 -12.266969 -16.922282 20.762383 -0.000004 -0.000013 -83.636418 21.989651 98.477756 29.048967 -0.000016 -0.000018 -60.274732 13.031986 21.550517 22.031235 -0.000022 0.000015 5.406768 11.898159 -24.658296 3.579257 2.890212 -2.661507 0.000002 0.000002 0.000005 9.544687 0.000000 0.061180 0.000002 0.000003 0.000003 -10.825163 -0.000009 0.000009 -75.505187 18.134393 7.740932 0.000003 43.678436 0.000000 45.748477 0.000002 0.000005 0.000003 36.488441 -0.000009 -4.857242 7.213131 0.268811 0.000002 3.967834 -0.000002 0.000000 -0.000002 -0.000000 0.000007 0.000009 -15.539290 9.027814 -0.000005 0.000000 0.000001 -0.000007 -3.486992 0.000002 -0.000002 -0.000001 10.825166 0.000000 0.000001 -73.394856 -23.319031 -11.393568 -0.000003 43.678440 -0.000007 41.272340 0.000004 0.000001 0.000005 36.488457 -0.000001 -5.661715 4.358519 3.903218 0.000001 3.967827 -0.000006 0.000000 -0.000000 0.000001 0.000001 -0.000006 -15.539299 -2.371837 0.000002 -0.000002 0.000003 -0.000007 -3.974443 -0.000000 0.000001 0.000001 
16.332352 -27.966988 -81.264542 50.781804 -175.001714 -3.013358 -0.000000 -11.180194 2.228552 14.056986 0.904345 0.752430 -0.000002 -8.682986 1.531061 17.810833 0.116736 0.831258 -0.000001 -8.783387 0.768452 20.961963 -5.472069 -5.096480 0.000000 -8.816938 0.000015 -9.085109 -0.821016 -1.108005 0.000002 -11.336063 -1.133624 -44.948126 -10.574645 5.745896 -0.000005 -7.643251 -0.668694 21.275075 2.849354 -5.724575 0.000001 -7.555869 -1.332301 0.085752 -0.107502 0.608708 0.000002 -9.728096 -0.000011 -0.000000 -0.000000 0.000001 -0.000002 -8.097191 -5.270936 -0.000000 10.312448 23.854021 -20.762396 -0.000023 -0.000007 -76.747776 -13.419626 -92.190868 -29.048950 -0.000017 0.000016 -31.882353 -25.907169 -15.203934 -22.031240 -0.000009 0.000016 5.390830 -7.000404 37.750152 -3.579253 2.890209 -2.661508 0.000010 -0.000003 0.000002 -9.544684 -0.000001 0.061174 0.000005 0.000005 0.000001 -0.000003 -8.097198 -5.270939 -0.000002 -12.455401 -17.507604 20.762390 -0.000027 -0.000003 -83.948113 21.748106 98.124704 29.048933 -0.000007 -0.000001 -59.845817 12.978706 21.136140 22.031239 -0.000008 0.000003 5.394859 11.881483 -24.640194 3.579268 2.890213 -2.661508 0.000001 -0.000002 -0.000001 9.544696 -0.000009 0.061187 0.000000 -0.000005 0.000003 -10.825164 0.000006 -0.000007 -75.487941 19.532102 7.448301 0.000001 43.678440 0.000006 46.158603 -0.000000 0.000001 -0.000001 36.488426 -0.000013 -4.982178 5.999540 0.001398 0.000005 3.967819 -0.000006 0.000001 -0.000001 0.000000 0.000003 -0.000011 -15.539303 9.017170 0.000004 0.000001 -0.000010 -0.000015 -3.486971 0.000001 0.000001 -0.000000 10.825165 0.000018 -0.000017 -74.110674 -20.935006 -11.731394 -0.000003 43.678467 0.000012 42.819060 0.000003 0.000003 -0.000001 36.488426 -0.000009 -5.575376 1.812750 4.015962 0.000005 3.967834 -0.000001 0.000000 0.000001 -0.000001 0.000001 0.000003 -15.539305 -2.923957 0.000000 -0.000001 -0.000002 -0.000007 -3.974454 0.000000 0.000001 -0.000001 
